<?xml version="1.0" encoding="UTF-8"?>
<svg width="1200px" height="1200px" viewBox="0 0 1200 1200" version="1.1" xmlns="http://www.w3.org/2000/svg" xmlns:xlink="http://www.w3.org/1999/xlink">
    <title>Artboard</title>
    <g id="Page-1" stroke="none" stroke-width="1" fill="none" fill-rule="evenodd">
        <g id="Artboard" stroke="#000000" stroke-width="10">
            <g id="Small" transform="translate(334.0671, 77.5763)">
                <path d="M237.87735,71.8738683 C153.882664,-11.159224 53.2455465,-11.9258696 23.2056819,18.0011166 C-6.83418273,47.9281027 -14.8439735,143.103199 43.0339963,225.588686 C100.911966,308.074173 222.692471,328.928394 265.145076,287.102543 C307.597681,245.276691 321.872035,154.906961 237.87735,71.8738683 Z" id="Path-2"></path>
                <circle id="Oval" cx="167.080985" cy="85.8738683" r="19"></circle>
                <circle id="Oval" cx="75.5809848" cy="127.373868" r="30.5"></circle>
            </g>
            <g id="Big" transform="translate(195, 259.5123)">
                <path d="M756.940512,48.8853462 C684.481017,-44.0727461 416.897257,0.0954114607 231.667942,142.773071 C209.382668,159.938878 188.28947,178.530603 168.871577,198.480995 C-11.9427224,384.253783 -37.1397833,621.98361 44.0287084,741.011161 C125.1972,860.038713 459.700877,860.038713 651.098576,664.60282 C842.496275,469.166927 838.11774,153.027394 756.940512,48.8853462 Z" id="Path"></path>
                <circle id="Oval" cx="432.648059" cy="547.937892" r="91"></circle>
                <circle id="Oval" cx="221.648059" cy="500.437892" r="43.5"></circle>
            </g>
        </g>
    </g>
</svg>